
<svg version="1.0" xmlns="http://www.w3.org/2000/svg"
 width="500.000000pt" height="353.000000pt" viewBox="0 0 500.000000 353.000000"
 preserveAspectRatio="xMidYMid meet">

<g transform="translate(0.000000,353.000000) scale(0.100000,-0.100000)"
fill="#D20A11" stroke="none">
<path d="M502 2538 c55 -139 109 -277 120 -305 l21 -53 753 0 c451 0 754 -4
754 -9 0 -5 -9 -30 -20 -55 l-19 -46 -530 0 -529 0 35 -87 c19 -49 39 -99 43
-113 5 -14 42 -113 83 -220 l75 -195 291 -3 290 -2 -15 -42 c-26 -75 -12 -72
-271 -65 -138 4 -234 3 -238 -3 -3 -5 48 -143 113 -307 l118 -298 1111 -3
1111 -2 68 172 c37 95 91 234 120 308 l53 135 -710 3 c-390 1 -709 5 -709 10
0 4 71 189 158 412 l158 405 317 3 c250 2 317 0 316 -10 0 -7 -31 -89 -68
-183 l-67 -170 389 -3 c215 -1 392 -1 394 1 2 3 286 726 374 955 l9 22 -2099
0 -2099 0 100 -252z"/>
</g>
</svg>
