
<svg version="1.0" xmlns="http://www.w3.org/2000/svg"
 width="3509.000000pt" height="2481.000000pt" viewBox="0 0 3509.000000 2481.000000"
 preserveAspectRatio="xMidYMid meet">

<g transform="translate(0.000000,2481.000000) scale(0.100000,-0.100000)"
fill="#000000" stroke="none">
<path d="M2783 19668 c3 -7 217 -551 477 -1208 259 -657 527 -1334 594 -1505
68 -170 240 -606 382 -967 l259 -658 5301 -2 5302 -3 -146 -372 -145 -373
-3718 0 c-2100 0 -3719 -4 -3719 -9 0 -4 54 -147 119 -317 65 -170 320 -831
566 -1469 246 -638 541 -1405 657 -1705 115 -300 236 -612 268 -695 l57 -150
2036 -5 2036 -5 -90 -230 c-50 -126 -113 -291 -142 -365 l-52 -135 -1744 -3
c-1388 -2 -1742 -5 -1738 -15 687 -1724 1707 -4292 1720 -4329 6 -17 386 -18
7796 -18 l7790 0 19 52 c11 29 66 170 122 313 56 143 195 501 310 795 114 294
233 598 263 675 58 147 587 1505 833 2139 79 203 144 373 144 377 0 5 -2188 9
-4999 9 l-4998 0 139 358 c76 196 197 506 267 687 71 182 374 960 674 1730
564 1449 644 1654 727 1865 27 69 141 364 255 655 113 292 209 533 214 538 4
4 1011 6 2238 5 l2231 -3 -134 -345 c-74 -190 -161 -412 -194 -495 -32 -82
-199 -510 -370 -950 -172 -440 -314 -806 -317 -813 -4 -9 551 -12 2755 -12
2199 0 2761 3 2765 13 24 61 395 1013 527 1352 176 451 249 638 330 845 49
125 445 1142 925 2375 139 358 278 713 308 790 203 519 617 1585 617 1589 0 3
-6642 6 -14761 6 -11805 0 -14760 -3 -14756 -12z"/>
</g>
</svg>
